<?xml version="1.0" standalone="no"?>
<!DOCTYPE svg PUBLIC "-//W3C//DTD SVG 20010904//EN"
 "http://www.w3.org/TR/2001/REC-SVG-20010904/DTD/svg10.dtd">
<svg version="1.0" xmlns="http://www.w3.org/2000/svg"
 width="132.000000pt" height="132.000000pt" viewBox="0 0 132.000000 132.000000"
 preserveAspectRatio="xMidYMid meet">
<metadata>
Created by potrace 1.11, written by Peter Selinger 2001-2013
</metadata>
<g transform="translate(0.000000,132.000000) scale(0.100000,-0.100000)"
fill="#000000" stroke="none">
<path d="M714 1142 c-21 -14 -24 -42 -5 -51 10 -6 21 -7 25 -4 10 10 66 -49
82 -86 8 -18 14 -49 14 -67 0 -47 -23 -35 -38 21 -14 52 -59 106 -107 129 -19
9 -35 21 -35 25 0 15 -32 22 -46 10 -18 -15 -18 -45 -1 -52 7 -3 24 -3 38 0
46 9 121 -69 141 -146 3 -9 -11 -23 -36 -35 -53 -28 -78 -64 -84 -124 -4 -49
17 -112 38 -112 26 0 179 95 193 120 31 51 17 109 -29 124 -16 5 -19 13 -16
42 6 48 -23 118 -61 150 -18 15 -31 31 -30 35 4 12 -31 29 -43 21z"/>
<path d="M1068 855 c-21 -8 -57 -27 -80 -43 -54 -37 -139 -123 -132 -133 3 -5
26 8 52 28 69 53 139 83 196 83 43 0 53 -4 87 -39 57 -57 50 -105 -26 -175
-32 -29 -133 -96 -145 -96 -6 0 -10 -8 -8 -17 2 -12 22 -22 60 -31 59 -14 108
-49 108 -77 0 -46 -79 -70 -146 -45 -45 18 -40 1 7 -19 82 -36 145 -33 175 7
34 44 -4 119 -71 144 -19 6 -35 14 -35 18 0 3 21 16 46 29 84 45 170 168 159
228 -2 10 -4 26 -4 35 -1 27 -52 79 -96 99 -47 22 -95 23 -147 4z"/>
<path d="M735 475 c0 -154 0 -155 22 -155 13 0 23 4 23 9 0 5 12 5 28 -1 65
-25 114 18 115 101 2 82 -49 128 -113 104 l-27 -10 1 51 c1 47 -1 51 -24 54
l-25 3 0 -156z m126 9 c17 -20 17 -88 0 -108 -18 -21 -58 -20 -69 2 -14 28 -8
102 8 112 22 14 46 12 61 -6z"/>
<path d="M20 565 c0 -23 3 -24 66 -27 l67 -3 -67 -87 c-36 -48 -66 -96 -66
-108 0 -19 6 -20 110 -20 l110 0 0 25 c0 23 -3 24 -70 27 l-70 3 59 77 c105
136 105 138 -35 138 -104 0 -104 0 -104 -25z"/>
<path d="M290 455 l0 -135 30 0 29 0 3 102 c3 102 3 103 31 112 52 19 62 2 65
-113 l3 -101 29 0 c34 0 32 -4 31 104 -2 86 12 116 54 116 38 0 45 -19 45
-122 l0 -98 30 0 c22 0 30 5 31 18 1 20 1 171 0 190 -2 25 -49 62 -80 62 -34
0 -81 -19 -81 -32 0 -5 -12 0 -27 12 -31 24 -88 25 -115 2 -16 -13 -18 -13
-18 1 0 12 -9 17 -30 17 l-30 0 0 -135z"/>
</g>
</svg>
